<?xml version="1.0" encoding="utf-8"?>
<!-- Generator: Adobe Illustrator 18.1.1, SVG Export Plug-In . SVG Version: 6.00 Build 0)  -->
<svg version="1.1" id="Layer_1" xmlns="http://www.w3.org/2000/svg" xmlns:xlink="http://www.w3.org/1999/xlink" x="0px" y="0px"
	 viewBox="0 0 360.45 122.11" style="enable-background:new 0 0 360.45 122.11;" xml:space="preserve">
<style type="text/css">
	.st0{fill:#FFFFFF;}
</style>
<g>
	<path class="st0" d="M63.4,59.18c7.07-0.94,12.7-9.86,12.6-19.92c-0.1-10.06-5.91-17.44-12.97-16.49
		c-7.05,0.95-12.69,9.86-12.6,19.92C50.55,52.75,56.35,60.12,63.4,59.18z"/>
	<path class="st0" d="M120.3,26.94c2.24-5.29,5.71-13.65,6.89-17.51c1.8-5.89,1.75-10.51-2.23-9.2c-3.71,1.23-9.52,14.02-9.52,14.02
		c-0.72,1.46-1.47,2.92-2.23,4.39C102.34,7.99,87.47,1.43,71.05,1.43c-29.7,0-54.37,21.47-59.39,49.73
		C-5.2,45.35-1.49,56.51,8.43,61.8c0.72,0.43,1.49,0.91,2.31,1.41c0.77,32.66,27.46,58.9,60.31,58.9
		c33.33,0,60.34-27.01,60.34-60.34C131.38,48.79,127.27,36.78,120.3,26.94z M71.11,4.73c15.85,0,30.18,6.46,40.52,16.9
		c-10.86,20.07-25.55,39.65-42.42,46.95c-15.21,6.58-26.6-3.42-50.52-14.54c-1.37-0.63-2.63-1.18-3.83-1.67
		C19.34,25.33,42.81,4.73,71.11,4.73z M14.19,65.36c12.1,7.59,30.5,19.96,37.21,28.29c5.66,7,5.59,12.17,2.57,22.54
		C31.94,109.26,15.68,89.31,14.19,65.36z M86.42,116.72c-1.26-7.31-1.63-9.53-0.5-17.76c2.81-20.48,19.89-39.88,32.37-67.31
		c0,0,0.19-0.43,0.51-1.17c5.91,8.99,9.36,19.74,9.36,31.3C128.15,87.97,110.49,110.03,86.42,116.72z"/>
</g>
<path class="st0" d="M168.69,66.3h-6.37v9.27h6.37c3.1,0,4.89-2.25,4.89-4.64C173.59,68.55,171.79,66.3,168.69,66.3 M169.21,85.67
	h-6.88v16.34h-11.26V56.19h18.15c10.17,0,15.64,7.21,15.64,14.74C184.85,78.46,179.38,85.67,169.21,85.67"/>
<path class="st0" d="M210.59,67.84c-0.84-1.09-2.45-2-4.5-2c-2.07,0-3.67,0.91-4.51,2c-1.02,1.35-1.67,2.89-1.67,11.26
	c0,8.36,0.64,9.85,1.67,11.2c0.85,1.09,2.45,2.06,4.51,2.06c2.05,0,3.67-0.97,4.5-2.06c1.03-1.35,1.67-2.83,1.67-11.2
	C212.26,70.74,211.62,69.19,210.59,67.84 M218.88,97.25c-3.34,3.35-7.21,5.15-12.8,5.15c-5.6,0-9.47-1.8-12.81-5.15
	c-4.83-4.82-4.63-11.26-4.63-18.15c0-6.88-0.2-13.32,4.63-18.15c3.34-3.34,7.21-5.15,12.81-5.15c5.59,0,9.46,1.8,12.8,5.15
	c4.83,4.83,4.64,11.27,4.64,18.15C223.52,85.99,223.71,92.43,218.88,97.25"/>
<polygon class="st0" points="270.49,102.01 261.29,102.01 253.89,79.43 246.49,102.01 237.35,102.01 224.74,56.19 236.51,56.19 
	242.5,80.39 249.9,56.19 257.88,56.19 265.28,80.39 271.27,56.19 283.03,56.19 "/>
<polygon class="st0" points="286.38,102.01 286.38,56.19 317.52,56.19 317.52,66.23 297.64,66.23 297.64,73.89 314.63,73.89 
	314.63,83.93 297.64,83.93 297.64,91.97 317.52,91.97 317.52,102.01 "/>
<path class="st0" d="M341.85,66.3h-6.37v9.27h6.37c3.09,0,4.89-2.25,4.89-4.64C346.74,68.55,344.94,66.3,341.85,66.3 M347.38,102.01
	l-8.11-17.05h-3.79v17.05h-11.26V56.19h18.15c10.17,0,15.65,7.21,15.65,14.74c0,6.25-3.87,10.17-7.47,11.97l9.91,19.11H347.38z"/>
<path class="st0" d="M154.76,36.5h7.27c2.7,0,4.54-1.2,4.54-4.07c0-2.63-1.2-4.07-4.1-4.07h-7.7V36.5z M151.62,25.63h11.87
	c2.86,0,6.2,1.67,6.2,6.83c0,4.64-3.4,6.77-6.47,6.77h-8.47v10.14h-3.13V25.63z"/>
<path class="st0" d="M189.71,41.57c0,5.4-3.46,8.4-9.04,8.4c-5.56,0-9.03-3-9.03-8.4V25.63h3.13v15.41c0,4.13,1.8,6.2,5.9,6.2
	c4.11,0,5.91-2.07,5.91-6.2V25.63h3.13V41.57z"/>
<path class="st0" d="M196.59,36.57h7.1c2.94,0,5-0.93,5-4.1c0-3.13-2.06-4.1-5-4.1h-7.1V36.57z M193.45,25.63h10.74
	c3.74,0,7.63,1.44,7.63,6.83c0,3.04-1.36,5.97-5.5,6.64l6.54,10.27h-3.81l-6.41-10.07h-6.06v10.07h-3.14V25.63z"/>
<path class="st0" d="M233.41,32.97c-0.8-3.23-3.97-5.4-7.51-5.4c-5.87,0-8.54,4.7-8.54,9.94s2.67,9.94,8.54,9.94
	c4.1,0,7.2-2.83,7.78-7.04l3.29,0.4c-1.06,5.61-5.87,9.17-11.07,9.17c-7.4,0-11.94-5.07-11.94-12.47s4.54-12.47,11.94-12.47
	c5.1,0,9.34,2.47,10.77,7.34L233.41,32.97z"/>
<polygon class="st0" points="239.65,25.63 242.79,25.63 242.79,35.71 255.86,35.71 255.86,25.63 258.99,25.63 258.99,49.37 
	255.86,49.37 255.86,38.44 242.79,38.44 242.79,49.37 239.65,49.37 "/>
<path class="st0" d="M271.4,29.53h-0.06l-3.6,9.84h7.07L271.4,29.53z M269.74,25.63h3.33l8.61,23.74h-3.37l-2.53-7.27h-9l-2.74,7.27
	h-3.37L269.74,25.63z"/>
<path class="st0" d="M298.29,32.6c-0.17-3.5-2.84-5.04-6.14-5.04c-2.24,0-5.31,0.77-5.31,3.57c0,6.27,15.08,1.57,15.08,11.47
	c0,5.04-4.64,7.37-9.14,7.37c-5.64,0-10.1-2.24-10.5-8.31l3.4-0.3c0.17,4.3,2.86,6.07,6.97,6.07c3,0,5.87-1.36,5.87-4.73
	c0-6.54-15.07-2.11-15.07-10.91c0-4.6,4.4-6.77,8.51-6.77c4.9,0,8.9,2.24,9.57,7.41L298.29,32.6z"/>
<rect x="304.96" y="25.63" class="st0" width="3.13" height="23.74"/>
<polygon class="st0" points="312.2,25.63 315.36,25.63 327.93,44.37 328,44.37 328,25.63 330.94,25.63 330.94,49.37 327.8,49.37 
	315.2,30.66 315.13,30.66 315.13,49.37 312.2,49.37 "/>
<path class="st0" d="M354.56,46.51c-2.53,2.91-5.88,3.46-8.85,3.46c-7.41,0-11.94-5.07-11.94-12.48c0-6.1,4.31-12.47,11.94-12.47
	c5.04,0,8.85,1.96,10.86,7.01l-2.85,0.83c-1.04-3-3.5-5.1-8.01-5.1c-5.3,0-8.78,4.48-8.78,9.55c0,5.23,2.91,9.94,8.78,9.94
	c4.98,0,8.44-2.57,8.44-7.64h-8.21v-2.74h11.01C356.95,36.86,357.61,43,354.56,46.51"/>
<g>
	<path class="st0" d="M354.87,51.5c1.59,0,2.88,1.27,2.88,2.86s-1.29,2.84-2.88,2.84c-1.59,0-2.88-1.25-2.88-2.84
		S353.28,51.5,354.87,51.5z M354.87,56.79c1.34,0,2.42-1.1,2.42-2.42c0-1.34-1.09-2.42-2.42-2.42c-1.34,0-2.42,1.09-2.42,2.42
		C352.45,55.69,353.54,56.79,354.87,56.79z M355.57,55.95l-0.69-1.25h-0.45v1.25h-0.77v-3.23h1.39c0.59,0,1.22,0.24,1.22,1.01
		c0,0.43-0.28,0.73-0.64,0.86l0.86,1.36H355.57z M355.01,54.14c0.23,0,0.47-0.16,0.47-0.42c0-0.27-0.28-0.38-0.47-0.38h-0.59v0.8
		H355.01z"/>
</g>
</svg>
