<?xml version="1.0" encoding="utf-8"?>
<!-- Generator: Adobe Illustrator 18.1.1, SVG Export Plug-In . SVG Version: 6.00 Build 0)  -->
<svg version="1.1" id="Layer_1" xmlns="http://www.w3.org/2000/svg" xmlns:xlink="http://www.w3.org/1999/xlink" x="0px" y="0px"
	 viewBox="49.69 35 150.31 130.02" style="enable-background:new 49.69 35 150.31 130.02;" xml:space="preserve">
<style type="text/css">
	.st0{fill:#1A81D4;}
	.st1{display:none;}
	.st2{display:inline;fill:#0071BA;}
</style>
<g id="Layer_2">
	<path class="st0" d="M121.62,98c7.53-1,13.52-10.5,13.41-21.21c-0.11-10.71-6.29-18.57-13.81-17.56
		c-7.52,1.01-13.51,10.51-13.41,21.21C107.94,91.16,114.12,99,121.62,98"/>
	<path class="st0" d="M182.2,63.68c2.38-5.63,6.08-14.53,7.34-18.64c1.92-6.27,1.86-11.19-2.37-9.8
		c-3.95,1.31-10.14,14.93-10.14,14.93c-0.77,1.55-1.57,3.11-2.37,4.67c-11.58-11.33-27.42-18.31-44.9-18.31
		c-31.62,0-57.89,22.86-63.23,52.95c-17.94-6.19-14,5.7-3.44,11.34c0.77,0.46,1.59,0.96,2.46,1.5
		c0.82,34.77,29.24,62.71,64.21,62.71c35.49,0,64.24-28.76,64.24-64.24C194,86.94,189.62,74.15,182.2,63.68 M129.83,40.03
		c16.88,0,32.13,6.88,43.14,17.99c-11.56,21.37-27.2,42.21-45.16,49.99c-16.19,7.01-28.32-3.64-53.79-15.48
		c-1.46-0.67-2.8-1.26-4.08-1.78C74.71,61.97,99.7,40.03,129.83,40.03z M69.23,104.58c12.88,8.08,32.47,21.25,39.62,30.12
		c6.03,7.45,5.95,12.96,2.74,24C88.13,151.32,70.82,130.08,69.23,104.58z M146.13,159.27c-1.34-7.79-1.74-10.15-0.53-18.91
		c2.99-21.8,21.18-42.46,34.46-71.66c0,0,0.2-0.46,0.54-1.25c6.29,9.57,9.97,21.02,9.97,33.32
		C190.56,128.66,171.76,152.14,146.13,159.27z"/>
</g>
<g id="Layer_3" class="st1">
	<path class="st2" d="M184.32,159.22c4.54-5.39,3.89-13.48-1.47-18.05l-35.87-28.9c-3.42-2.94-7.93-3.72-11.92-2.48
		c5.23-8.43,7.61-18.3,6.79-28.41c-1-12.41-6.74-23.68-16.13-31.71c-9.39-8.05-21.33-11.91-33.63-10.9
		c-12.31,1.01-23.48,6.79-31.45,16.27c-16.47,19.58-14.09,49.03,5.32,65.65c17.63,15.08,43.32,14.48,60.23-0.4
		c-0.56,4.18,0.93,8.56,4.37,11.51l35.87,28.91C171.78,165.28,179.78,164.62,184.32,159.22z M98.47,117.55
		c-8.58,0.71-16.91-1.99-23.45-7.59C61.47,98.38,59.8,77.84,71.28,64.18c11.5-13.65,31.86-15.34,45.39-3.75
		c13.54,11.58,15.21,32.12,3.73,45.78C114.84,112.81,107.05,116.84,98.47,117.55z"/>
</g>
</svg>
