<?xml version="1.0" encoding="utf-8"?>
<!-- Generator: Adobe Illustrator 18.1.1, SVG Export Plug-In . SVG Version: 6.00 Build 0)  -->
<svg version="1.1" xmlns="http://www.w3.org/2000/svg" xmlns:xlink="http://www.w3.org/1999/xlink" x="0px" y="0px"
	 viewBox="0 0 187.85 122.11" style="enable-background:new 0 0 187.85 122.11;" xml:space="preserve">
<style type="text/css">
	.st0{fill:#0071BA;}
	.st1{display:none;}
	.st2{display:inline;fill-rule:evenodd;clip-rule:evenodd;fill:#0071BA;}
</style>
<g id="Layer_2">
	<path class="st0" d="M119.87,59.18c7.07-0.94,12.7-9.86,12.6-19.92c-0.1-10.06-5.91-17.44-12.97-16.49
		c-7.06,0.95-12.69,9.87-12.6,19.92C107.02,52.75,112.82,60.12,119.87,59.18"/>
	<path class="st0" d="M176.77,26.94c2.24-5.29,5.71-13.65,6.89-17.51c1.8-5.89,1.75-10.51-2.23-9.2
		c-3.71,1.23-9.52,14.02-9.52,14.02c-0.72,1.46-1.47,2.92-2.23,4.39c-10.88-10.64-25.75-17.2-42.17-17.2
		c-29.7,0-54.37,21.47-59.39,49.73c-16.85-5.81-13.15,5.35-3.23,10.65c0.72,0.43,1.49,0.9,2.31,1.41
		c0.77,32.66,27.46,58.9,60.31,58.9c33.33,0,60.34-27.01,60.34-60.34C187.85,48.79,183.74,36.78,176.77,26.94 M127.58,4.73
		c15.85,0,30.18,6.46,40.52,16.9c-10.86,20.07-25.55,39.65-42.42,46.95c-15.21,6.58-26.6-3.42-50.52-14.54
		c-1.37-0.63-2.63-1.18-3.83-1.67C75.81,25.34,99.28,4.73,127.58,4.73z M70.66,65.36c12.1,7.59,30.5,19.96,37.21,28.29
		c5.66,7,5.59,12.17,2.57,22.54C88.41,109.26,72.15,89.31,70.66,65.36z M142.89,116.72c-1.26-7.32-1.63-9.53-0.5-17.76
		c2.81-20.48,19.89-39.88,32.37-67.31c0,0,0.19-0.43,0.51-1.17c5.91,8.99,9.36,19.74,9.36,31.3
		C184.62,87.97,166.96,110.03,142.89,116.72z"/>
</g>
<g id="Layer_4">
	<rect x="0" y="84.27" class="st0" width="46.67" height="12"/>
	<rect x="0" y="58.27" class="st0" width="46.67" height="12"/>
	<rect x="0" y="32.27" class="st0" width="46.67" height="12"/>
</g>
<g id="Layer_3" class="st1">
	<path class="st2" d="M173.12,116.68c4.26-5.06,3.65-12.66-1.38-16.95l-33.69-27.14c-3.21-2.76-7.45-3.49-11.2-2.33
		c4.91-7.92,7.15-17.19,6.38-26.68c-0.94-11.66-6.33-22.24-15.15-29.78C109.26,6.24,98.05,2.61,86.49,3.56
		C74.93,4.51,64.44,9.94,56.95,18.84C41.48,37.23,43.72,64.89,61.95,80.5c16.56,14.16,40.69,13.6,56.57-0.38
		c-0.53,3.93,0.87,8.04,4.1,10.81l33.69,27.15C161.34,122.37,168.86,121.75,173.12,116.68z M92.49,77.54
		c-8.06,0.67-15.88-1.87-22.03-7.13c-12.72-10.88-14.29-30.17-3.51-43c10.8-12.82,29.92-14.41,42.63-3.52
		c12.72,10.88,14.29,30.17,3.5,43C107.86,73.09,100.55,76.87,92.49,77.54z"/>
</g>
</svg>
