<?xml version="1.0" encoding="utf-8"?>
<!-- Generator: Adobe Illustrator 18.1.1, SVG Export Plug-In . SVG Version: 6.00 Build 0)  -->
<svg version="1.1" id="Layer_1" xmlns="http://www.w3.org/2000/svg" xmlns:xlink="http://www.w3.org/1999/xlink" x="0px" y="0px"
	 viewBox="0 66.13 200 67.75" style="enable-background:new 0 66.13 200 67.75;" xml:space="preserve">
<style type="text/css">
	.st0{fill:#0071BA;}
</style>
<g>
	<path class="st0" d="M35.18,98.96c3.92-0.52,7.05-5.47,6.99-11.05s-3.28-9.68-7.2-9.15c-3.91,0.53-7.04,5.47-6.99,11.05
		C28.05,95.39,31.27,99.48,35.18,98.96z"/>
	<path class="st0" d="M66.75,81.07c1.24-2.94,3.17-7.57,3.82-9.72c1-3.27,0.97-5.83-1.24-5.1c-2.06,0.68-5.28,7.78-5.28,7.78
		c-0.4,0.81-0.82,1.62-1.24,2.44c-6.03-5.91-14.28-9.55-23.39-9.55c-16.48,0-30.17,11.91-32.95,27.59c-9.35-3.22-7.3,2.97-1.79,5.9
		c0.4,0.24,0.83,0.5,1.28,0.78c0.43,18.12,15.24,32.68,33.46,32.68c18.49,0,33.48-14.99,33.48-33.48
		C72.9,93.19,70.62,86.53,66.75,81.07z M39.46,68.75c8.79,0,16.75,3.58,22.48,9.38c-6.03,11.14-14.18,22-23.54,26.05
		c-8.44,3.65-14.76-1.9-28.03-8.07c-0.76-0.35-1.46-0.65-2.13-0.93C10.73,80.18,23.75,68.75,39.46,68.75z M7.87,102.39
		c6.71,4.21,16.92,11.08,20.65,15.7c3.14,3.88,3.1,6.75,1.43,12.51C17.72,126.75,8.7,115.68,7.87,102.39z M47.95,130.89
		c-0.7-4.06-0.9-5.29-0.28-9.85c1.56-11.36,11.04-22.13,17.96-37.35c0,0,0.11-0.24,0.28-0.65c3.28,4.99,5.19,10.95,5.19,17.37
		C71.11,114.93,61.31,127.17,47.95,130.89z"/>
</g>
<path class="st0" d="M93.6,102.91h-3.53v5.14h3.53c1.72,0,2.71-1.25,2.71-2.57C96.32,104.16,95.32,102.91,93.6,102.91 M93.89,113.66
	h-3.82v9.07h-6.25V97.3h10.07c5.64,0,8.68,4,8.68,8.18C102.57,109.66,99.53,113.66,93.89,113.66"/>
<path class="st0" d="M116.85,103.76c-0.47-0.6-1.36-1.11-2.5-1.11c-1.15,0-2.04,0.5-2.5,1.11c-0.57,0.75-0.93,1.6-0.93,6.25
	c0,4.64,0.36,5.47,0.93,6.21c0.47,0.6,1.36,1.14,2.5,1.14c1.14,0,2.04-0.54,2.5-1.14c0.57-0.75,0.93-1.57,0.93-6.21
	C117.77,105.37,117.42,104.51,116.85,103.76 M121.45,120.08c-1.85,1.86-4,2.86-7.1,2.86c-3.11,0-5.25-1-7.11-2.86
	c-2.68-2.67-2.57-6.25-2.57-10.07c0-3.82-0.11-7.39,2.57-10.07c1.85-1.85,4-2.86,7.11-2.86c3.1,0,5.25,1,7.1,2.86
	c2.68,2.68,2.57,6.25,2.57,10.07C124.02,113.84,124.13,117.41,121.45,120.08"/>
<polygon class="st0" points="150.08,122.72 144.98,122.72 140.87,110.2 136.77,122.72 131.7,122.72 124.7,97.3 131.23,97.3 
	134.55,110.73 138.66,97.3 143.09,97.3 147.19,110.73 150.52,97.3 157.04,97.3 "/>
<polygon class="st0" points="158.9,122.72 158.9,97.3 176.18,97.3 176.18,102.87 165.15,102.87 165.15,107.12 174.58,107.12 
	174.58,112.69 165.15,112.69 165.15,117.15 176.18,117.15 176.18,122.72 "/>
<path class="st0" d="M189.68,102.91h-3.53v5.14h3.53c1.71,0,2.71-1.25,2.71-2.57C192.39,104.16,191.39,102.91,189.68,102.91
	 M192.75,122.72l-4.5-9.46h-2.1v9.46h-6.25V97.3h10.07c5.64,0,8.68,4,8.68,8.18c0,3.47-2.15,5.64-4.14,6.64l5.5,10.6H192.75z"/>
<path class="st0" d="M85.87,86.38h4.03c1.5,0,2.52-0.67,2.52-2.26c0-1.46-0.67-2.26-2.27-2.26h-4.27L85.87,86.38L85.87,86.38z
	 M84.13,80.34h6.59c1.59,0,3.44,0.93,3.44,3.79c0,2.57-1.89,3.76-3.59,3.76h-4.7v5.63h-1.74C84.13,93.52,84.13,80.34,84.13,80.34z"
	/>
<path class="st0" d="M105.26,89.19c0,3-1.92,4.66-5.02,4.66c-3.09,0-5.01-1.66-5.01-4.66v-8.84h1.74v8.55c0,2.29,1,3.44,3.27,3.44
	c2.28,0,3.28-1.15,3.28-3.44v-8.55h1.74C105.26,80.34,105.26,89.19,105.26,89.19z"/>
<path class="st0" d="M109.08,86.41h3.94c1.63,0,2.77-0.52,2.77-2.27c0-1.74-1.14-2.27-2.77-2.27h-3.94V86.41z M107.34,80.34h5.96
	c2.08,0,4.23,0.8,4.23,3.79c0,1.69-0.75,3.31-3.05,3.68l3.63,5.7h-2.11l-3.56-5.59h-3.36v5.59h-1.74L107.34,80.34L107.34,80.34z"/>
<path class="st0" d="M129.51,84.42c-0.44-1.79-2.2-3-4.17-3c-3.26,0-4.74,2.61-4.74,5.52s1.48,5.52,4.74,5.52
	c2.27,0,4-1.57,4.32-3.91l1.83,0.22c-0.59,3.11-3.26,5.09-6.14,5.09c-4.11,0-6.63-2.81-6.63-6.92s2.52-6.92,6.63-6.92
	c2.83,0,5.18,1.37,5.98,4.07L129.51,84.42z"/>
<polygon class="st0" points="132.97,80.34 134.71,80.34 134.71,85.94 141.97,85.94 141.97,80.34 143.7,80.34 143.7,93.52 
	141.97,93.52 141.97,87.45 134.71,87.45 134.71,93.52 132.97,93.52 "/>
<path class="st0" d="M150.59,82.51h-0.03l-2,5.46h3.92L150.59,82.51z M149.67,80.34h1.85l4.78,13.17h-1.87l-1.4-4.03h-4.99
	l-1.52,4.03h-1.87L149.67,80.34z"/>
<path class="st0" d="M165.51,84.21c-0.09-1.94-1.58-2.8-3.41-2.8c-1.24,0-2.95,0.43-2.95,1.98c0,3.48,8.37,0.87,8.37,6.36
	c0,2.8-2.57,4.09-5.07,4.09c-3.13,0-5.6-1.24-5.83-4.61l1.89-0.17c0.09,2.39,1.59,3.37,3.87,3.37c1.66,0,3.26-0.75,3.26-2.62
	c0-3.63-8.36-1.17-8.36-6.05c0-2.55,2.44-3.76,4.72-3.76c2.72,0,4.94,1.24,5.31,4.11L165.51,84.21z"/>
<rect x="169.21" y="80.34" class="st0" width="1.74" height="13.17"/>
<polygon class="st0" points="173.23,80.34 174.98,80.34 181.96,90.74 181.99,90.74 181.99,80.34 183.63,80.34 183.63,93.52 
	181.88,93.52 174.89,83.13 174.85,83.13 174.85,93.52 173.23,93.52 "/>
<path class="st0" d="M196.73,91.93c-1.4,1.61-3.26,1.92-4.91,1.92c-4.11,0-6.63-2.81-6.63-6.92c0-3.38,2.39-6.92,6.63-6.92
	c2.8,0,4.91,1.09,6.03,3.89l-1.58,0.46c-0.58-1.66-1.94-2.83-4.44-2.83c-2.94,0-4.87,2.49-4.87,5.3c0,2.9,1.61,5.52,4.87,5.52
	c2.76,0,4.68-1.43,4.68-4.24h-4.56v-1.52h6.11C198.06,86.58,198.42,89.98,196.73,91.93"/>
<g>
	<path class="st0" d="M196.9,94.7c0.88,0,1.6,0.7,1.6,1.59c0,0.88-0.72,1.58-1.6,1.58c-0.88,0-1.6-0.69-1.6-1.58
		C195.31,95.4,196.02,94.7,196.9,94.7z M196.9,97.63c0.74,0,1.34-0.61,1.34-1.34c0-0.74-0.6-1.34-1.34-1.34
		c-0.74,0-1.34,0.6-1.34,1.34C195.56,97.02,196.17,97.63,196.9,97.63z M197.29,97.17l-0.38-0.69h-0.25v0.69h-0.43v-1.79H197
		c0.33,0,0.68,0.13,0.68,0.56c0,0.24-0.16,0.41-0.36,0.48l0.48,0.75H197.29z M196.98,96.16c0.13,0,0.26-0.09,0.26-0.23
		c0-0.15-0.16-0.21-0.26-0.21h-0.33v0.44H196.98z"/>
</g>
</svg>
