<?xml version="1.0" encoding="utf-8"?>
<!-- Generator: Adobe Illustrator 18.1.1, SVG Export Plug-In . SVG Version: 6.00 Build 0)  -->
<svg version="1.1" id="Layer_3" xmlns="http://www.w3.org/2000/svg" xmlns:xlink="http://www.w3.org/1999/xlink" x="0px" y="0px"
	 viewBox="0 0 133.61 121.45" style="enable-background:new 0 0 133.61 121.45;" xml:space="preserve">
<style type="text/css">
	.st0{fill-rule:evenodd;clip-rule:evenodd;fill:#0071BA;}
</style>
<path class="st0" d="M130.68,117.06c4.4-5.23,3.77-13.08-1.42-17.52L94.44,71.5c-3.32-2.85-7.7-3.6-11.58-2.41
	c5.07-8.18,7.39-17.76,6.59-27.57c-0.97-12.05-6.54-22.98-15.66-30.78C64.69,2.93,53.1-0.83,41.16,0.15
	c-11.95,0.98-22.79,6.59-30.54,15.8C-5.36,34.96-3.04,63.54,15.8,79.67c17.11,14.64,42.05,14.05,58.46-0.4
	c-0.55,4.06,0.9,8.31,4.23,11.17l34.82,28.06C118.51,122.94,126.28,122.3,130.68,117.06z M47.35,76.61
	c-8.33,0.69-16.41-1.93-22.76-7.37C11.45,58,9.82,38.06,20.97,24.8c11.16-13.25,30.92-14.89,44.05-3.64
	c13.14,11.24,14.77,31.17,3.62,44.43C63.24,72.01,55.68,75.92,47.35,76.61z"/>
</svg>
