<?xml version="1.0" encoding="utf-8"?>
<!-- Generator: Adobe Illustrator 18.1.1, SVG Export Plug-In . SVG Version: 6.00 Build 0)  -->
<svg version="1.1" id="Layer_2" xmlns="http://www.w3.org/2000/svg" xmlns:xlink="http://www.w3.org/1999/xlink" x="0px" y="0px"
	 viewBox="60 75.63 79.01 47" style="enable-background:new 60 75.63 79.01 47;" xml:space="preserve">
<style type="text/css">
	.st0{fill-rule:evenodd;clip-rule:evenodd;fill:#0073CF;}
</style>
<g>
	<g>
		<path class="st0" d="M128.25,76.62L117.5,90.64h5.57v15.46h10.38V90.64h5.57L128.25,76.62z M118.45,93.16h-7.44l7.82-10.2
			c-1.79-1.05-3.86-1.67-6.08-1.67h-4.64c-0.17-3.16-2.78-5.67-5.98-5.67h-20.5c-3.2,0-5.81,2.51-5.98,5.67H72
			c-6.63,0-12,5.37-12,12v17.33c0,6.63,5.37,12,12,12h40.75c6.63,0,12-5.37,12-12v-2h-6.3V93.16z M71.5,94.63
			c-1.93,0-3.5-1.57-3.5-3.5c0-1.93,1.57-3.5,3.5-3.5s3.5,1.57,3.5,3.5C75,93.06,73.43,94.63,71.5,94.63z M92.66,113.41
			c-6.23,0-11.28-5.07-11.28-11.33c0-6.26,5.05-11.33,11.28-11.33c6.23,0,11.28,5.07,11.28,11.33
			C103.94,108.34,98.89,113.41,92.66,113.41z"/>
	</g>
</g>
</svg>
